<svg xmlns="http://www.w3.org/2000/svg" width="1920" height="400" viewBox="0 0 1920 400">
  <defs>
    <linearGradient id="bgNew" x1="0" y1="0" x2="1" y2="1">
      <stop offset="0%" stop-color="#faf7f2"/>
      <stop offset="100%" stop-color="#f0e8d8"/>
    </linearGradient>
    <linearGradient id="darkLine" x1="0" y1="0" x2="1" y2="0">
      <stop offset="0%" stop-color="#3d3228" stop-opacity="0"/>
      <stop offset="50%" stop-color="#3d3228"/>
      <stop offset="100%" stop-color="#3d3228" stop-opacity="0"/>
    </linearGradient>
  </defs>
  <rect width="1920" height="400" fill="url(#bgNew)"/>
  <circle cx="250" cy="200" r="180" fill="none" stroke="#c9a96e" stroke-width="0.5" opacity="0.12"/>
  <circle cx="250" cy="200" r="140" fill="none" stroke="#c9a96e" stroke-width="0.3" opacity="0.08"/>
  <circle cx="1670" cy="200" r="180" fill="none" stroke="#c9a96e" stroke-width="0.5" opacity="0.12"/>
  <circle cx="1670" cy="200" r="140" fill="none" stroke="#c9a96e" stroke-width="0.3" opacity="0.08"/>
  <g transform="translate(380, 120)" opacity="0.07">
    <path d="M0,0 Q25,-30 15,-80 Q10,-45 0,-20 Q-10,-45 -15,-80 Q-25,-30 0,0 Z" fill="#8B7355"/>
    <line x1="0" y1="0" x2="0" y2="40" stroke="#8B7355" stroke-width="0.8"/>
  </g>
  <g transform="translate(1540, 260)" opacity="0.07">
    <path d="M0,0 Q25,-30 15,-80 Q10,-45 0,-20 Q-10,-45 -15,-80 Q-25,-30 0,0 Z" fill="#8B7355"/>
    <line x1="0" y1="0" x2="0" y2="40" stroke="#8B7355" stroke-width="0.8"/>
  </g>
  <g transform="translate(960, 130)">
    <rect x="-95" y="-30" width="190" height="28" rx="14" fill="none" stroke="#8B7355" stroke-width="0.8" opacity="0.5"/>
    <text x="0" y="-11" text-anchor="middle" font-family="'Helvetica Neue', Arial, sans-serif" font-size="11" fill="#8B7355" letter-spacing="4" opacity="0.8">SPRING / SUMMER 2026</text>
    <line x1="-120" y1="18" x2="120" y2="18" stroke="url(#darkLine)" stroke-width="0.5" opacity="0.3"/>
    <text x="0" y="85" text-anchor="middle" font-family="Georgia, 'Times New Roman', serif" font-size="64" fill="#3d3228" letter-spacing="10" font-weight="400">NEW ARRIVALS</text>
    <g transform="translate(0, 115) rotate(45)">
      <rect x="-4" y="-4" width="8" height="8" fill="none" stroke="#8B7355" stroke-width="0.8"/>
    </g>
    <text x="0" y="155" text-anchor="middle" font-family="'Helvetica Neue', Arial, sans-serif" font-size="13" fill="#8B7355" letter-spacing="3">DISCOVER THE LATEST STYLES &amp; TRENDS</text>
    <line x1="-120" y1="175" x2="120" y2="175" stroke="url(#darkLine)" stroke-width="0.5" opacity="0.3"/>
  </g>
  <rect x="0" y="396" width="1920" height="4" fill="#c9a96e" opacity="0.25"/>
</svg>