<svg xmlns="http://www.w3.org/2000/svg" width="1920" height="400" viewBox="0 0 1920 400">
  <defs>
    <linearGradient id="bgAll" x1="0" y1="0" x2="1" y2="1">
      <stop offset="0%" stop-color="#1a1a1a"/>
      <stop offset="100%" stop-color="#2a2a2a"/>
    </linearGradient>
    <linearGradient id="goldLine" x1="0" y1="0" x2="1" y2="0">
      <stop offset="0%" stop-color="#c9a96e" stop-opacity="0"/>
      <stop offset="50%" stop-color="#c9a96e"/>
      <stop offset="100%" stop-color="#c9a96e" stop-opacity="0"/>
    </linearGradient>
  </defs>
  <rect width="1920" height="400" fill="url(#bgAll)"/>
  <g opacity="0.03">
    <line x1="0" y1="400" x2="400" y2="0" stroke="#fff" stroke-width="1"/>
    <line x1="200" y1="400" x2="600" y2="0" stroke="#fff" stroke-width="1"/>
    <line x1="400" y1="400" x2="800" y2="0" stroke="#fff" stroke-width="1"/>
    <line x1="600" y1="400" x2="1000" y2="0" stroke="#fff" stroke-width="1"/>
    <line x1="800" y1="400" x2="1200" y2="0" stroke="#fff" stroke-width="1"/>
    <line x1="1000" y1="400" x2="1400" y2="0" stroke="#fff" stroke-width="1"/>
    <line x1="1200" y1="400" x2="1600" y2="0" stroke="#fff" stroke-width="1"/>
    <line x1="1400" y1="400" x2="1800" y2="0" stroke="#fff" stroke-width="1"/>
    <line x1="1600" y1="400" x2="1920" y2="80" stroke="#fff" stroke-width="1"/>
  </g>
  <g transform="translate(960, 160)">
    <line x1="-100" y1="-40" x2="100" y2="-40" stroke="url(#goldLine)" stroke-width="0.8"/>
    <text x="0" y="-15" text-anchor="middle" font-family="'Helvetica Neue', Arial, sans-serif" font-size="12" fill="#c9a96e" letter-spacing="5" opacity="0.8">EXPLORE OUR CATALOG</text>
    <text x="0" y="55" text-anchor="middle" font-family="Georgia, 'Times New Roman', serif" font-size="64" fill="#ffffff" letter-spacing="14" font-weight="400">SHOP ALL</text>
    <g transform="translate(0, 85) rotate(45)">
      <rect x="-4" y="-4" width="8" height="8" fill="none" stroke="#c9a96e" stroke-width="0.8"/>
    </g>
    <text x="0" y="120" text-anchor="middle" font-family="'Helvetica Neue', Arial, sans-serif" font-size="13" fill="#777777" letter-spacing="3">PREMIUM FASHION &amp; ACCESSORIES</text>
    <line x1="-100" y1="145" x2="100" y2="145" stroke="url(#goldLine)" stroke-width="0.8"/>
  </g>
  <rect x="0" y="397" width="1920" height="3" fill="url(#goldLine)" opacity="0.5"/>
</svg>