<svg xmlns="http://www.w3.org/2000/svg" width="1920" height="800" viewBox="0 0 1920 800">
  <defs>
    <linearGradient id="bg2" x1="0" y1="0" x2="1" y2="1">
      <stop offset="0%" stop-color="#f5ebe0"/>
      <stop offset="100%" stop-color="#d5c4a1"/>
    </linearGradient>
  </defs>
  <rect width="1920" height="800" fill="url(#bg2)"/>
  <circle cx="1550" cy="150" r="280" fill="none" stroke="#c4a882" stroke-width="0.8" opacity="0.3"/>
  <circle cx="1550" cy="150" r="240" fill="none" stroke="#c4a882" stroke-width="0.5" opacity="0.2"/>
  <circle cx="200" cy="700" r="220" fill="none" stroke="#b89e6e" stroke-width="0.8" opacity="0.2"/>
  <path d="M1400,0 Q1350,200 1300,400 Q1280,500 1320,600 Q1360,700 1400,800 L1920,800 L1920,0 Z" fill="#e8d5b8" opacity="0.3"/>
  <path d="M1500,0 Q1480,150 1450,350 Q1430,500 1460,650 Q1490,750 1520,800 L1920,800 L1920,0 Z" fill="#dcc8a5" opacity="0.25"/>
  <path d="M1620,0 Q1610,200 1600,400 Q1595,550 1610,700 Q1630,770 1660,800 L1920,800 L1920,0 Z" fill="#d4bc96" opacity="0.2"/>
  <g transform="translate(250, 200)" opacity="0.12">
    <path d="M0,-30 Q0,-60 30,-60 Q60,-60 60,-30" fill="none" stroke="#8B7355" stroke-width="2"/>
    <line x1="-80" y1="0" x2="0" y2="-30" stroke="#8B7355" stroke-width="2"/>
    <line x1="140" y1="0" x2="60" y2="-30" stroke="#8B7355" stroke-width="2"/>
    <line x1="-80" y1="0" x2="140" y2="0" stroke="#8B7355" stroke-width="2"/>
  </g>
  <g transform="translate(350, 350)" opacity="0.08">
    <path d="M0,0 L-15,-40 L-5,-40 L0,-20 L5,-40 L15,-40 L0,0 Z" fill="none" stroke="#8B7355" stroke-width="1.5"/>
    <path d="M-15,0 Q-40,60 -50,140 L50,140 Q40,60 15,0 Z" fill="none" stroke="#8B7355" stroke-width="1.5"/>
  </g>
  <g transform="translate(150, 450)" opacity="0.1">
    <path d="M0,0 Q30,-40 20,-100 Q15,-60 0,-30 Q-15,-60 -20,-100 Q-30,-40 0,0 Z" fill="#8B7355"/>
    <line x1="0" y1="0" x2="0" y2="60" stroke="#8B7355" stroke-width="1"/>
  </g>
  <g transform="translate(960, 300)">
    <line x1="-120" y1="-80" x2="120" y2="-80" stroke="#8B7355" stroke-width="0.5" opacity="0.5"/>
    <text x="0" y="-50" text-anchor="middle" font-family="'Helvetica Neue', Arial, sans-serif" font-size="13" fill="#8B7355" letter-spacing="5" opacity="0.7">SPRING / SUMMER 2026</text>
    <text x="0" y="30" text-anchor="middle" font-family="Georgia, 'Times New Roman', serif" font-size="80" fill="#3d3228" letter-spacing="6" font-weight="400">SUMMER</text>
    <text x="0" y="120" text-anchor="middle" font-family="Georgia, 'Times New Roman', serif" font-size="80" fill="#3d3228" letter-spacing="10" font-weight="400">ESSENTIALS</text>
    <g transform="translate(0, 155) rotate(45)">
      <rect x="-5" y="-5" width="10" height="10" fill="none" stroke="#8B7355" stroke-width="0.8"/>
    </g>
    <text x="0" y="210" text-anchor="middle" font-family="Georgia, 'Times New Roman', serif" font-size="28" fill="#8B7355" letter-spacing="3">Up to 40% Off</text>
    <text x="0" y="250" text-anchor="middle" font-family="'Helvetica Neue', Arial, sans-serif" font-size="13" fill="#8B7355" letter-spacing="3" opacity="0.7">LIGHTWEIGHT FABRICS &amp; EFFORTLESS STYLE</text>
    <rect x="-80" y="280" width="160" height="48" rx="0" fill="#3d3228"/>
    <text x="0" y="310" text-anchor="middle" font-family="'Helvetica Neue', Arial, sans-serif" font-size="13" fill="#f5ebe0" letter-spacing="4">SHOP NOW</text>
    <line x1="-120" y1="360" x2="120" y2="360" stroke="#8B7355" stroke-width="0.5" opacity="0.5"/>
  </g>
  <g opacity="0.03">
    <pattern id="dots" x="0" y="0" width="30" height="30" patternUnits="userSpaceOnUse">
      <circle cx="15" cy="15" r="1" fill="#8B7355"/>
    </pattern>
    <rect width="1920" height="800" fill="url(#dots)"/>
  </g>
</svg>